<svg xmlns="http://www.w3.org/2000/svg" width="32" height="32" id="bicycle"><path fill="none" stroke="#2b4255" stroke-linecap="round" stroke-linejoin="round" d="M2 25.028h8m13.492 0h8m-12.058 0h2.058"></path><g transform="translate(421.746 -1365.73)"><path fill="none" stroke="#f8b84e" stroke-linecap="round" stroke-linejoin="round" d="m-404.637 1383.36 4.418-7.034"></path><ellipse cx="-395.782" cy="1385.281" fill="none" stroke="#25b39e" stroke-linecap="round" stroke-linejoin="round" color="#000" overflow="visible" rx="5.536" ry="5.477" style="isolation:auto;mix-blend-mode:normal"></ellipse><ellipse cx="-415.711" cy="1385.281" fill="none" stroke="#25b39e" stroke-linecap="round" stroke-linejoin="round" color="#000" overflow="visible" rx="5.536" ry="5.477" style="isolation:auto;mix-blend-mode:normal"></ellipse><path fill="none" stroke="#f8b84e" stroke-linecap="round" stroke-linejoin="round" d="m-416.525 1384.689 6.071-9.087m.479.642h9.712"></path><path fill="none" stroke="#f05542" stroke-linecap="round" stroke-linejoin="round" d="m-406.311 1383.263-4.757-8.917h1.72c.512 0 .766.28.832.526"></path><ellipse cx="-415.711" cy="1385.281" fill="none" stroke="#2b4255" stroke-linecap="round" stroke-linejoin="round" color="#000" overflow="visible" rx="1.011" ry="1" style="isolation:auto;mix-blend-mode:normal"></ellipse><path fill="none" stroke="#2b4255" stroke-linecap="round" stroke-linejoin="round" d="m-415.714 1384.282 9.59-.977m-9.59 2.983 9.59.977"></path><path fill="none" stroke="#2b4255" stroke-linecap="round" stroke-linejoin="round" stroke-width="1.816" d="M817.522 838.57v4.245m1.51.039h-3.019" transform="matrix(.5499 .06302 -.0637 .54407 -802.014 879.654)"></path><path fill="none" stroke="#2b4255" stroke-linecap="round" stroke-linejoin="round" stroke-width="1.816" d="M817.522 838.57v4.245m1.51.039h-3.019" transform="matrix(-.5499 -.06302 .0637 -.54407 -9.404 1891.009)"></path><ellipse style="isolation:auto;mix-blend-mode:normal" cx="-405.746" cy="1385.521" fill="#25b39e" color="#000" overflow="visible" rx="2.5" ry="2.473"></ellipse><ellipse cx="-405.746" cy="1385.521" fill="#25b39e" stroke="#2b4255" stroke-linecap="round" stroke-linejoin="round" color="#000" overflow="visible" rx="1" ry=".987" style="isolation:auto;mix-blend-mode:normal"></ellipse><path fill="none" stroke="#f05542" stroke-linecap="round" stroke-linejoin="round" d="m-396.009 1384.179-5.833-10.921 2.343-.024c1.864-.118 2.218 2.255.51 2.26h-.37"></path><ellipse cx="-395.782" cy="1385.281" fill="none" stroke="#2b4255" stroke-linecap="round" stroke-linejoin="round" color="#000" overflow="visible" rx="1.011" ry="1" style="isolation:auto;mix-blend-mode:normal"></ellipse></g></svg>