<svg xmlns="http://www.w3.org/2000/svg" width="512" height="512" fill="none" viewBox="0 0 512 512" id="completing-studies"><path fill="#fff" d="M497.93 471.94C458.66 455.53 448.67 420.34 448.39 391.2 448.02 352.48 475.06 327.8 440.33 279.01 435.62 272.39 428.1 268.39 421.88 263.19 412.26 255.13 404.5 245.12 396.82 235.19 395.9 234 394.96 232.75 394.69 231.27 394.2 228.57 396.31 225.87 398.93 225.05 401.55 224.25 404.45 225.03 406.8 226.45 409.14 227.88 411.05 229.9 412.98 231.84 414.6 233.46 416.32 235.05 418.3 236.17L416.25 230.14C412.92 221.59 410.17 212.24 409.9 205.04 409.82 203.08 410.11 200.64 411.95 199.96 413.31 199.46 414.79 200.28 415.88 201.23 418.59 203.59 420.31 206.86 421.85 210.1 423.74 214.07 425.08 216.88 426.28 219.85L427.17 213.88C426.8 209.16 426.84 204.39 427.3 199.67 427.49 197.64 428.25 195.12 430.28 194.93 431.71 194.81 432.88 195.99 433.7 197.18 439.93 206.16 437.83 218.52 441.84 228.7 441.81 219.95 442.5 211.2 443.91 202.56 444.23 200.64 444.77 198.44 446.52 197.6 448.2 196.8 450.3 197.71 451.43 199.18 452.57 200.66 452.96 202.55 453.3 204.38 454.85 212.69 455.86 221.09 456.33 229.52L457.98 226.41C458.86 220.98 460.76 215.71 463.55 210.97 464.37 209.58 465.43 208.12 467.01 207.85 468.76 207.55 470.45 208.9 471.13 210.55 471.79 212.19 471.67 214.03 471.5 215.79 470.56 225.33 468.38 234.74 468.09 244.33 467.8 253.91 470.49 263.38 475.79 271.37 522.53 341.65 466.16 383.24 492.71 413.94V413.95C492.33 419.91 494.25 426.16 495.69 432.1 498.86 445.11 499.6 458.68 497.93 471.94zM411.971 330.633C408.061 341.653 404.101 352.773 397.921 362.703 393.921 369.123 389.691 375.373 386.171 382.073 372.821 407.493 354.261 438.903 356.731 464.713 351.261 467.573 345.081 469.073 338.921 468.973 333.631 468.883 328.371 467.633 323.591 465.373 323.271 440.063 339.161 415.543 352.531 385.623 356.181 377.473 354.541 367.833 351.511 359.443 348.471 351.043 343.801 343.333 340.191 335.163 339.531 333.643 338.891 332.053 339.001 330.403 339.111 328.753 340.221 327.053 341.861 326.823 343.341 326.623 344.701 327.593 345.821 328.583 349.671 331.973 352.881 336.083 355.251 340.633L357.611 342.903C355.571 335.313 354.031 327.573 352.991 319.773 352.761 318.053 352.571 316.253 353.141 314.613 353.731 312.983 355.321 311.573 357.041 311.793 358.841 312.023 359.961 313.813 360.801 315.433 364.561 322.673 367.711 330.223 370.231 337.983 370.821 327.803 365.371 317.483 368.281 307.693 368.661 306.413 369.361 305.023 370.661 304.723 372.511 304.303 373.921 306.323 374.681 308.053 376.451 312.093 377.871 316.303 378.921 320.603L381.451 325.313C381.661 322.443 382.021 319.623 382.521 315.703 382.951 312.393 383.521 308.993 385.231 306.123 385.921 304.963 387.001 303.803 388.351 303.853 390.171 303.913 391.121 306.003 391.631 307.753 393.481 314.213 393.771 323.293 393.291 331.843L392.881 338.143C394.501 336.513 395.631 334.443 396.681 332.393 397.841 330.113 398.931 327.773 400.591 325.823 402.251 323.873 404.591 322.343 407.151 322.293 409.711 322.243 412.361 324.023 412.721 326.553 412.921 327.933 412.441 329.323 411.971 330.633zM268.241 455.109C255.481 457.969 242.261 458.699 229.271 457.249 199.011 417.569 239.561 391.349 237.361 362.589 236.681 353.679 233.571 345.089 228.001 338.109 222.431 331.119 215.541 325.309 209.521 318.719 208.401 317.509 207.281 316.199 206.861 314.599 206.441 312.989 206.951 311.029 208.421 310.279 209.751 309.609 211.371 310.109 212.741 310.679 217.481 312.659 221.831 315.519 225.531 319.079L228.491 320.479C224.131 313.919 220.201 307.099 216.711 300.039 215.941 298.489 215.181 296.849 215.201 295.109 215.231 293.379 216.281 291.529 217.981 291.189 219.761 290.839 221.401 292.169 222.701 293.429 228.581 299.089 233.991 305.239 238.861 311.779 236.151 301.949 227.701 293.899 227.321 283.719 227.271 282.379 227.481 280.839 228.621 280.139 230.231 279.139 232.221 280.609 233.491 281.999 236.461 285.269 239.161 288.799 241.521 292.529L245.141 294.979C244.551 292.569 244.041 290.049 243.371 286.729 242.721 283.449 242.171 280.059 242.871 276.779 243.161 275.459 243.811 274.019 245.101 273.639 246.851 273.109 248.421 274.779 249.451 276.279 253.281 281.809 256.451 290.319 258.741 298.559L260.861 303.529C261.521 301.769 261.851 299.879 262.121 297.999 262.491 295.469 262.781 292.899 263.721 290.529 264.671 288.149 266.411 285.949 268.811 285.089 271.211 284.229 274.311 285.069 275.451 287.349 276.071 288.599 276.071 290.059 276.041 291.449 275.861 303.149 275.671 314.949 272.991 326.329 271.271 333.699 267.231 340.919 268.061 348.439 272.081 384.449 264.151 393.469 256.021 409.429 248.621 423.989 253.311 436.439 268.241 455.109zM80.0006 330.99C75.2006 348.48 61.6406 363.71 60.0906 388.34 58.5006 413.63 66.9906 431.82 77.1006 444.19 71.5206 447.34 65.2706 449.31 58.8806 449.87 53.3906 450.34 47.8206 449.78 42.5206 448.25 32.1406 433.62 21.1706 392.48 39.4806 348.77 42.1406 342.44 46.4306 333.06 46.7206 326.2 46.9906 320.21 44.1506 314.58 42.0806 308.94 40.0206 303.34 39.1306 296.94 42.1106 291.77 42.1206 291.74 42.1506 291.72 42.1606 291.69 44.0306 288.49 47.4906 286.09 51.1106 285.29 52.5506 281.03 57.2406 277.64 61.7306 277.89 62.9606 275.15 66.4906 273.51 69.3606 274.4 69.9506 272.1 72.2006 270.41 74.5706 270.2 76.9306 269.98 79.3106 271.09 80.9306 272.83 82.5506 274.58 83.4406 276.9 83.7806 279.26 83.9506 280.53 83.9706 281.88 83.4906 283.06 83.0006 284.26 81.9206 285.26 80.6406 285.37L78.8706 286.4C78.9806 287.28 78.9906 288.17 78.7506 289.03 78.6206 289.5 78.4006 289.97 78.1106 290.37L78.9006 291.08 82.2606 292.33C85.4006 292.68 88.3206 293.16 91.2306 293.58L89.8806 294.67C85.1806 299.02 83.5806 305.75 82.9506 312.11 82.4706 316.85 82.0206 321.58 81.1206 326.24 80.8006 327.82 80.4406 329.4 80.0006 330.99z"></path><path fill="#fff" d="M197.029 253.401C192.529 255.391 188.029 257.391 183.539 259.391 171.069 264.911 158.609 270.471 146.149 276.001 134.829 281.021 123.519 286.021 112.179 290.971 103.559 294.741 103.559 294.741 98.9592 294.451 96.3092 294.281 93.7692 293.941 91.2292 293.571 88.3192 293.151 85.3992 292.671 82.2592 292.321L78.8992 291.071 78.1092 290.361C78.3992 289.961 78.6192 289.501 78.7492 289.021 78.9892 288.161 78.9792 287.271 78.8692 286.391L80.6392 285.361C81.9192 285.251 82.9992 284.241 83.4892 283.051 83.9692 281.861 83.9492 280.521 83.7792 279.251 83.4392 276.891 82.5492 274.571 80.9292 272.821 79.3092 271.081 76.9292 269.971 74.5692 270.191 72.1992 270.401 69.9392 272.091 69.3592 274.391 66.4892 273.501 62.9592 275.141 61.7292 277.881 57.2392 277.631 52.5492 281.021 51.1092 285.281 47.4892 286.081 44.0292 288.481 42.1592 291.681 42.1492 291.711 42.1192 291.731 42.1092 291.761L39.1392 291.291C29.7192 289.911 20.2092 289.131 10.6992 288.941L12.6592 285.991C39.8492 273.961 67.0292 261.921 94.2092 249.881L98.9292 247.891C131.619 249.741 164.329 251.571 197.029 253.401zM203.27 360.414C202.76 361.304 201.77 361.764 200.82 362.134 199.02 362.804 197.14 363.254 195.23 363.474 194.65 363.534 193.99 363.544 193.58 363.124 193.13 362.664 193.22 361.914 193.35 361.284 194.34 356.204 195.32 351.114 196.31 346.034 196.31 346.034 197.17 340.224 198.67 343.504 200.69 347.884 202.43 352.404 203.42 357.114 203.64 358.214 203.82 359.434 203.27 360.414z"></path><path fill="#fff" d="M154.239 305.16L153.099 307.08C137.079 324.45 111.499 332.38 88.4694 327.13 88.4694 327.13 84.4794 326.73 81.1094 326.23 82.0094 321.57 82.4594 316.84 82.9394 312.1 83.5694 305.74 85.1694 299.01 89.8694 294.66L91.2194 293.57C93.7694 293.95 96.3094 294.28 98.9494 294.45 103.549 294.74 103.549 294.74 112.169 290.97 123.509 286.02 134.829 281.02 146.139 276L148.169 281.94C150.199 289.68 152.219 297.42 154.239 305.16zM228.489 137.989C216.129 146.879 203.769 155.769 191.409 164.659 184.829 169.389 178.259 174.119 171.679 178.849 166.049 161.469 160.409 144.089 154.779 126.719 154.779 126.719 151.889 123.799 157.699 119.099 174.279 105.649 190.859 92.2191 207.439 78.7891 210.359 84.7691 212.679 90.5691 214.699 96.2491 218.949 108.179 221.969 119.609 226.819 131.369L228.489 137.989zM210.609 225.023C208.659 225.413 206.689 225.803 204.719 225.573 202.749 225.353 200.749 224.413 199.759 222.693 198.329 220.233 199.319 217.113 200.529 214.533 201.739 211.953 203.179 209.183 202.549 206.413L206.259 202.773C208.339 210.053 209.789 217.493 210.609 225.023z"></path><path fill="#fff" d="M222.67 169.377L219.3 172.927C211.88 170.947 204.48 168.957 197.07 166.987L191.42 164.647C203.78 155.757 216.14 146.867 228.5 137.977L226.84 131.347C221.99 119.587 218.97 108.147 214.72 96.2266L220.72 97.6066C228.23 100.117 235.75 102.637 243.28 105.137 245.86 128.167 238.17 152.167 222.67 169.377zM348.509 210.67C329.819 203.95 311.129 197.22 292.429 190.5 279.499 205.27 267.959 221.22 257.529 237.84 254.339 242.93 260.049 244.13 260.049 244.13 276.629 248.01 292.869 253.32 308.519 260 323.829 245.76 338.119 230.42 351.229 214.12L348.509 210.67zM302.719 239.76C295.569 239.79 288.919 233.75 288.259 226.63 287.609 219.52 293.039 212.36 300.069 211.09L305.139 211.08C312.179 212.3 317.669 219.41 317.059 226.53 316.459 233.65 309.859 239.74 302.719 239.76z"></path><path fill="#fff" d="M317.06 226.518C316.46 233.638 309.86 239.738 302.72 239.758 295.57 239.788 288.92 233.748 288.26 226.628 287.61 219.518 293.04 212.358 300.07 211.088L305.14 211.078C312.18 212.288 317.67 219.398 317.06 226.518zM383.441 289.241C383.351 291.561 380.761 292.831 378.571 293.601 376.941 294.171 375.031 294.691 373.601 293.741 372.611 293.071 372.161 291.851 371.771 290.721 370.671 287.521 369.571 284.321 368.471 281.121 368.471 281.121 366.421 277.091 370.451 278.581 374.231 279.981 377.451 282.591 380.641 285.041 382.021 286.111 383.491 287.501 383.441 289.241zM412.441 92.7578C403.891 99.5478 395.071 105.978 385.971 112.018 379.871 116.088 373.641 119.978 367.311 123.688L362.291 126.588C353.371 130.328 344.241 133.568 334.951 136.288 325.541 139.058 315.971 141.278 306.301 142.968 319.941 127.918 333.571 112.858 347.201 97.8078 347.201 97.8078 348.461 96.4378 354.881 96.1378 362.431 95.7778 369.971 95.3578 377.521 94.9078H377.531C389.181 94.1978 400.801 93.4378 412.441 92.7578zM431.92 49.9463C431.05 50.7163 429.82 50.8763 428.67 50.9863 423.83 51.4463 418.96 51.3163 414.11 50.9663 410.48 50.6963 412.85 47.3963 412.85 47.3963 416.85 43.9963 421.43 41.2663 426.34 39.3963 427.72 38.8663 429.29 38.4063 430.65 38.9663 432.93 39.9163 433.26 42.9463 433.25 45.4063 433.25 47.0263 433.15 48.8663 431.92 49.9463z"></path><path fill="#fff" d="M393.721 129.033L392.711 132.003C388.181 140.323 380.901 147.133 372.301 151.103C363.691 155.073 353.791 156.193 344.511 154.243C342.161 149.953 339.811 145.663 337.481 141.363L334.961 136.293C344.251 133.573 353.381 130.333 362.301 126.593L367.321 123.693C373.651 119.983 379.881 116.093 385.981 112.023L386.621 115.693C387.991 120.583 390.421 125.173 393.721 129.033Z"></path><path fill="#231F20" d="M450.55 250.938C447.97 245.018 442.96 240.398 437.01 237.968C433.72 236.628 430.26 236.318 426.75 236.028C423.26 235.738 420.09 235.078 417.32 232.798C414.48 230.458 412.17 227.568 409.2 225.378C406.28 223.218 402.56 221.978 398.95 222.758C395.57 223.488 392.77 226.428 392.42 229.888C392.05 233.608 395.06 236.568 397.16 239.268C401.83 245.288 406.58 251.278 411.84 256.798C416.87 262.078 422.41 266.538 428.28 270.838C430.92 272.768 433.52 274.768 435.81 277.118C438.41 279.788 440.43 282.988 442.42 286.128C446.08 291.898 449.32 297.988 451.65 304.428C455.3 314.478 456.49 324.978 455.4 335.598C454.43 345.058 451.78 354.428 449.66 363.758C447.38 373.788 445.87 383.888 446.21 394.198C446.52 403.858 447.89 413.558 450.7 422.818C453.7 432.728 458.38 442.058 464.81 450.198C471.96 459.238 481.28 466.438 491.59 471.538C494.56 473.008 497.62 474.308 500.72 475.478C501.86 475.908 503.19 474.998 503.49 473.908C503.84 472.648 503.06 471.568 501.92 471.138C491.04 467.038 480.92 460.888 472.8 452.508C465.95 445.448 460.67 436.928 457.14 427.758C450.37 410.158 449.02 390.498 452.53 371.998C454.29 362.708 456.96 353.618 458.65 344.318C460.45 334.478 460.96 324.528 459.13 314.648C456.76 301.828 450.66 289.948 443.28 279.308C441.31 276.468 439.15 273.908 436.54 271.638C433.97 269.408 431.19 267.418 428.44 265.418C422.75 261.268 417.63 256.548 412.9 251.338C407.97 245.908 403.46 240.128 398.98 234.328C398.18 233.298 396.96 232.018 396.89 230.648C396.83 229.508 397.6 228.448 398.48 227.808C401.11 225.908 404.76 227.618 407 229.318C409.71 231.378 411.82 234.128 414.47 236.258C417.48 238.688 420.75 239.878 424.57 240.338C427.83 240.728 431.11 240.718 434.27 241.758C437.05 242.668 439.63 244.228 441.76 246.228C443.89 248.218 445.51 250.578 446.68 253.238C447.17 254.348 448.8 254.608 449.76 254.048C450.89 253.348 451.03 252.058 450.55 250.938Z"></path><path fill="#231F20" d="M418.441 229.582C416.751 225.232 415.231 220.812 414.061 216.302C413.061 212.462 412.131 208.422 412.161 204.432C412.171 203.832 412.161 203.052 412.441 202.502C412.701 202.002 412.711 202.012 413.251 202.192C414.881 202.742 416.261 204.792 417.151 206.162C419.431 209.642 421.081 213.602 422.781 217.382C424.541 221.282 425.941 225.302 427.171 229.392C428.001 232.162 432.351 230.982 431.511 228.192C430.221 223.892 428.711 219.702 426.891 215.602C424.971 211.312 423.131 206.682 420.331 202.872C418.841 200.852 416.941 198.602 414.441 197.852C412.121 197.162 409.721 198.072 408.561 200.212C407.521 202.122 407.591 204.442 407.751 206.532C407.931 208.862 408.301 211.182 408.771 213.472C409.991 219.392 411.911 225.152 414.101 230.772C414.541 231.902 415.611 232.692 416.871 232.342C417.951 232.052 418.881 230.712 418.441 229.582Z"></path><path fill="#231F20" d="M429.43 213.908C429.11 209.668 429.1 205.408 429.43 201.168C429.5 200.248 429.46 197.868 430.37 197.268C430.81 196.978 431.68 198.188 431.99 198.668C435.72 204.338 436.19 211.358 437.07 217.898C437.6 221.778 438.26 225.658 439.68 229.328C440.55 231.578 444.1 231.428 444.1 228.728C444.08 220.018 444.52 211.058 446.21 202.498C446.39 201.608 446.65 199.718 447.82 199.578C449.16 199.408 450.09 201.048 450.45 202.078C451.1 203.928 451.34 205.958 451.67 207.878C452.05 210.078 452.39 212.288 452.69 214.498C453.36 219.488 453.82 224.498 454.1 229.528C454.26 232.408 458.76 232.428 458.6 229.528C458.31 224.338 457.81 219.168 457.12 214.018C456.77 211.408 456.38 208.798 455.92 206.198C455.51 203.838 455.18 201.418 454.11 199.238C452.15 195.248 446.53 193.348 443.5 197.308C442.2 199.008 441.87 201.128 441.55 203.178C441.15 205.778 440.8 208.388 440.52 211.008C439.88 216.888 439.58 222.808 439.59 228.718C441.06 228.518 442.54 228.318 444.01 228.118C441.1 220.558 441.46 212.298 439.39 204.538C438.44 200.968 436.87 196.568 433.96 194.108C432.34 192.738 430.12 192.208 428.21 193.318C426.6 194.248 425.71 196.088 425.33 197.848C424.81 200.268 424.78 202.858 424.71 205.328C424.63 208.188 424.71 211.048 424.93 213.908C425.02 215.118 425.9 216.158 427.18 216.158C428.32 216.158 429.52 215.128 429.43 213.908Z"></path><path fill="#231F20" d="M460.169 227.018C461.079 221.598 462.889 216.108 465.919 211.478 466.289 210.908 466.919 209.938 467.729 210.078 468.569 210.218 469.069 211.278 469.249 211.998 469.559 213.228 469.389 214.568 469.269 215.818 469.119 217.398 468.929 218.968 468.719 220.548 467.149 232.208 464.459 243.978 466.869 255.718 467.979 261.118 470.059 266.358 472.929 271.058 475.779 275.718 478.779 280.218 481.309 285.078 485.489 293.088 488.729 301.568 490.689 310.398 493.839 324.548 493.179 339.028 490.469 353.008 488.229 364.558 484.519 375.898 483.299 387.638 482.779 392.618 482.869 397.728 484.139 402.598 485.479 407.698 488.159 412.308 491.679 416.198 492.669 417.288 493.719 418.308 494.809 419.288 496.959 421.208 500.159 418.038 497.989 416.108 496.869 415.108 495.789 414.058 494.779 412.938 493.709 411.748 493.219 411.128 492.419 409.968 491.699 408.928 491.049 407.838 490.469 406.718 490.199 406.198 489.959 405.678 489.719 405.148 489.459 404.568 489.889 405.568 489.649 404.978 489.599 404.858 489.559 404.738 489.509 404.628 489.389 404.338 489.279 404.038 489.179 403.738 488.769 402.588 488.439 401.408 488.179 400.218 488.049 399.638 487.939 399.058 487.849 398.468 487.829 398.328 487.719 397.588 487.749 397.838 487.769 398.018 487.679 397.198 487.659 397.008 487.409 394.528 487.429 392.028 487.609 389.548 487.659 388.908 487.709 388.278 487.779 387.638 487.809 387.368 487.839 387.098 487.869 386.828 487.889 386.658 488.029 385.568 487.969 385.998 488.149 384.678 488.369 383.358 488.599 382.038 489.109 379.228 489.719 376.438 490.369 373.658 491.779 367.558 493.329 361.488 494.559 355.348 497.509 340.608 498.379 325.618 495.349 310.808 493.489 301.698 490.239 292.908 486.089 284.608 483.679 279.788 480.939 275.148 477.979 270.648 474.879 265.948 472.599 260.888 471.369 255.378 468.719 243.568 471.799 231.458 473.309 219.708 473.679 216.828 474.299 213.688 473.569 210.818 472.889 208.158 470.709 205.838 467.879 205.618 464.999 205.388 462.969 207.598 461.619 209.868 460.149 212.328 458.949 214.968 457.959 217.658 456.979 220.318 456.279 223.058 455.809 225.848 455.609 227.048 456.129 228.268 457.379 228.618 458.479 228.888 459.959 228.228 460.169 227.018zM373.28 360.623C373.85 354.673 377.51 349.133 382.7 346.203 385.66 344.533 389.02 343.683 391.88 341.823 395.01 339.793 396.97 336.783 398.63 333.523 400.1 330.653 401.49 327.253 404.35 325.483 406.14 324.373 409.56 323.913 410.41 326.513 410.91 328.013 409.84 329.943 409.34 331.333 408.68 333.193 408.01 335.063 407.33 336.913 406.04 340.443 404.7 343.963 403.22 347.413 400.17 354.523 396.32 361.043 392.18 367.563 388.17 373.873 384.56 380.343 381.05 386.933 374.41 399.393 367.7 411.853 362.39 424.953 356.98 438.303 352.8 452.853 354.79 467.363 354.96 468.573 356.5 469.223 357.56 468.933 358.86 468.573 359.3 467.373 359.13 466.163 357.34 453.113 361.37 439.713 366.11 427.703 371.47 414.083 378.54 401.213 385.41 388.313 389.1 381.383 393 374.673 397.21 368.043 401.53 361.243 405.25 354.303 408.31 346.843 409.81 343.183 411.19 339.473 412.53 335.753 413.79 332.263 416.11 328.003 414.35 324.323 412.83 321.153 409.16 319.653 405.8 320.183 402.17 320.753 399.33 323.423 397.39 326.383 395.4 329.413 394.3 333.063 391.94 335.853 389.62 338.593 386.15 339.683 382.97 341.083 376.68 343.843 371.85 349.063 369.74 355.643 369.22 357.263 368.94 358.943 368.77 360.633 368.65 361.843 369.89 362.883 371.02 362.883 372.34 362.873 373.16 361.843 373.28 360.623z"></path><path fill="#231F20" d="M395.551 331.827C395.821 326.897 395.861 321.947 395.451 317.027C395.261 314.757 394.981 312.487 394.541 310.257C394.161 308.287 393.721 306.187 392.701 304.437C391.601 302.557 389.631 301.247 387.401 301.687C385.131 302.137 383.631 304.147 382.681 306.127C380.591 310.507 380.271 315.497 379.711 320.257C379.151 324.967 378.951 329.657 379.071 334.397C379.141 337.287 383.641 337.297 383.571 334.397C383.481 330.797 383.521 327.197 383.851 323.607C384.201 319.807 384.561 315.917 385.371 312.187C385.761 310.387 386.301 308.467 387.381 306.937C388.231 305.727 388.601 306.097 389.121 307.307C390.441 310.387 390.731 314.167 390.981 317.467C391.351 322.247 391.301 327.047 391.051 331.837C390.891 334.717 395.391 334.717 395.551 331.827Z"></path><path fill="#231F20" d="M381.09 319.999C380.06 315.819 378.68 311.749 377 307.789C375.68 304.679 372.76 300.869 368.93 303.019C365.74 304.819 365.31 309.889 365.2 313.119C365.07 317.039 365.79 320.959 366.51 324.789C367.34 329.159 368.21 333.509 367.99 337.979C369.46 337.779 370.94 337.579 372.41 337.379C370.91 332.789 369.2 328.289 367.29 323.859C366.36 321.699 365.38 319.559 364.34 317.449C363.39 315.509 362.5 313.449 361.11 311.769C358.26 308.349 353.22 309.199 351.35 313.159C350.31 315.349 350.49 317.739 350.8 320.069C351.12 322.479 351.48 324.879 351.9 327.269C352.84 332.729 354.04 338.139 355.46 343.499C356.2 346.299 360.55 345.109 359.8 342.299C358.75 338.339 357.82 334.349 357.02 330.339C356.24 326.359 355.42 322.299 355.08 318.249C354.98 317.009 354.85 315.239 355.95 314.349C356.92 313.559 357.66 314.529 358.18 315.349C360.22 318.539 361.71 322.239 363.21 325.699C365.04 329.909 366.64 334.219 368.06 338.579C368.85 341.009 372.35 340.539 372.48 337.979C372.9 329.489 369.34 321.379 369.7 312.909C369.77 311.179 369.96 309.149 370.72 307.559C370.84 307.309 370.97 307.069 371.19 306.899C371.32 306.799 370.95 306.819 371.03 306.849C371.66 307.079 372.06 307.859 372.35 308.409C374.45 312.299 375.69 316.919 376.74 321.189C377.44 323.999 381.78 322.809 381.09 319.999Z"></path><path fill="#231F20" d="M357.2 339.497C354.55 334.447 350.74 329.157 346 325.857 343.61 324.197 340.41 324.027 338.38 326.367 336.38 328.677 336.47 331.787 337.51 334.507 339.7 340.287 342.87 345.707 345.56 351.257 348.22 356.757 350.55 362.447 351.72 368.467 352.79 373.957 352.72 379.757 350.41 384.937 347.83 390.727 345.07 396.437 342.29 402.127 337.21 412.567 331.97 422.977 327.83 433.837 323.69 444.707 320.8 456.237 321.43 467.947 321.58 470.827 326.08 470.847 325.93 467.947 324.83 447.317 334.71 427.927 343.49 409.897 346.04 404.647 348.62 399.417 351.1 394.137 353.66 388.697 356.36 383.457 356.8 377.377 357.65 365.787 352.35 354.717 347.28 344.647 345.79 341.687 344.28 338.737 342.9 335.727 342.26 334.337 341.44 332.847 341.26 331.317 341.18 330.647 341.28 329.307 342.11 329.087 343.05 328.827 344.27 330.217 344.87 330.767 346.02 331.827 347.12 332.957 348.15 334.137 350.18 336.467 351.88 339.057 353.31 341.797 354.66 344.327 358.55 342.057 357.2 339.497zM249.031 332.381C248.091 328.361 248.511 324.021 250.241 320.271 251.111 318.381 252.271 316.641 253.711 315.141 255.271 313.521 257.061 312.141 258.671 310.581 260.311 308.991 261.741 307.191 262.641 305.081 263.591 302.871 264.011 300.541 264.351 298.171 264.881 294.501 265.371 288.701 269.561 287.221 270.721 286.811 272.341 286.971 273.181 287.951 273.791 288.661 273.791 289.741 273.801 290.621 273.811 292.021 273.761 293.431 273.741 294.831 273.651 300.121 273.501 305.421 273.081 310.701 272.661 315.971 271.961 321.251 270.671 326.391 269.461 331.181 267.431 335.731 266.391 340.571 265.881 342.941 265.581 345.391 265.761 347.811 265.951 350.341 266.281 352.871 266.471 355.401 266.801 359.771 266.971 364.161 266.861 368.551 266.701 374.851 265.951 381.001 264.081 387.041 262.591 391.861 260.651 395.881 258.231 400.461 255.551 405.531 252.431 410.551 251.101 416.191 247.531 431.321 257.421 445.131 266.331 456.321 267.961 458.361 269.621 460.371 271.311 462.371 272.101 463.301 273.681 463.181 274.491 462.371 275.411 461.451 275.281 460.121 274.491 459.191 268.521 452.141 262.541 444.801 258.421 436.481 255.631 430.861 254.051 424.611 255.191 418.601 256.271 412.891 259.391 407.911 262.071 402.841 264.541 398.181 266.831 393.411 268.391 388.361 270.361 382.021 271.181 375.351 271.361 368.731 271.481 364.211 271.301 359.691 270.961 355.181 270.761 352.581 270.371 349.981 270.241 347.381 270.111 344.891 270.511 342.471 271.141 340.071 272.421 335.171 274.411 330.511 275.491 325.551 276.651 320.201 277.311 314.731 277.701 309.271 278.091 303.751 278.201 298.211 278.291 292.671 278.331 290.181 278.451 287.541 276.891 285.441 275.571 283.671 273.531 282.731 271.361 282.551 266.711 282.161 263.141 285.941 261.571 289.951 259.761 294.571 260.541 300.061 257.991 304.391 256.891 306.271 255.211 307.721 253.601 309.141 251.821 310.711 250.101 312.291 248.661 314.191 245.921 317.821 244.381 322.301 244.091 326.821 243.941 329.091 244.181 331.381 244.701 333.591 245.361 336.391 249.701 335.201 249.031 332.381z"></path><path fill="#231F20" d="M260.919 297.973C259.599 293.233 258.039 288.573 256.119 284.043C255.249 281.993 254.289 279.973 253.199 278.023C252.199 276.253 251.099 274.333 249.579 272.953C247.859 271.403 245.479 270.703 243.379 271.963C241.399 273.153 240.739 275.573 240.459 277.713C239.839 282.573 241.219 287.573 242.229 292.303C243.189 296.773 244.479 301.123 246.049 305.423C246.469 306.563 247.579 307.333 248.819 306.993C249.919 306.693 250.809 305.373 250.389 304.223C247.909 297.433 245.999 290.283 245.009 283.113C244.739 281.133 244.609 278.993 245.119 277.043C245.189 276.793 245.359 275.963 245.669 275.823C246.069 275.643 246.709 276.433 246.929 276.673C248.019 277.863 248.829 279.403 249.599 280.813C250.499 282.463 251.319 284.173 252.059 285.903C253.899 290.193 255.329 294.663 256.579 299.153C257.359 301.953 261.699 300.773 260.919 297.973Z"></path><path fill="#231F20" d="M243.47 291.392C241.11 287.702 238.47 284.182 235.55 280.912C234.21 279.422 232.62 277.982 230.58 277.642C228.53 277.302 226.58 278.352 225.7 280.232C224.87 282.002 225.03 284.012 225.28 285.892C225.53 287.732 225.97 289.512 226.61 291.252C227.89 294.742 229.7 297.982 231.52 301.202C233.54 304.782 235.57 308.382 236.7 312.362C238.07 311.782 239.44 311.202 240.81 310.632C237.98 306.842 235 303.162 231.84 299.632C230.25 297.852 228.61 296.122 226.94 294.422C225.4 292.862 223.87 291.132 222.01 289.952C220.15 288.772 217.77 288.462 215.84 289.662C214.09 290.752 213.12 292.762 212.98 294.772C212.82 297.032 213.81 299.182 214.78 301.162C215.82 303.282 216.91 305.372 218.04 307.452C220.67 312.292 223.52 317.012 226.56 321.602C228.15 324.002 232.05 321.752 230.45 319.332C225.96 312.562 221.71 305.492 218.29 298.112C217.75 296.952 217.11 295.432 217.68 294.182C218.25 292.932 219.28 293.452 220.16 294.142C221.64 295.292 222.94 296.772 224.25 298.102C225.65 299.532 227.02 300.992 228.36 302.472C231.38 305.812 234.24 309.292 236.93 312.902C237.6 313.802 238.64 314.312 239.74 313.822C240.75 313.382 241.35 312.272 241.04 311.172C238.84 303.382 233.38 297.122 230.76 289.532C230.16 287.772 229.7 285.952 229.59 284.092C229.56 283.562 229.42 282.632 229.72 282.142C229.83 281.962 229.7 281.932 230.07 282.132C230.39 282.302 230.69 282.472 230.98 282.692C232.7 284.062 234.11 286.062 235.45 287.782C236.93 289.672 238.3 291.652 239.59 293.672C241.13 296.102 245.03 293.842 243.47 291.392Z"></path><path fill="#231F20" d="M227.119 317.491C224.249 314.761 221.029 312.371 217.539 310.491 214.409 308.801 209.809 306.201 206.519 308.881 203.159 311.621 204.509 316.181 206.829 319.061 209.399 322.251 212.489 325.071 215.399 327.941 221.039 333.501 226.899 339.091 230.559 346.221 233.589 352.121 235.359 359.041 235.189 365.691 235.079 370.081 233.959 374.441 232.399 378.781 230.749 383.361 228.669 387.691 226.539 392.151 222.039 401.581 217.499 411.131 216.159 421.611 214.569 433.931 218.509 445.851 225.549 455.911 226.689 457.541 227.899 459.111 229.139 460.661 229.899 461.611 231.529 461.451 232.319 460.661 233.259 459.721 233.079 458.431 232.319 457.481 224.879 448.241 219.719 437.231 220.329 425.171 220.819 415.541 224.759 406.371 228.859 397.711 232.859 389.251 237.489 380.681 239.099 371.361 241.319 358.531 236.829 345.151 228.599 335.281 223.549 329.231 217.589 324.031 212.199 318.301 211.069 317.101 209.619 315.811 209.099 314.201 208.799 313.251 208.989 312.121 210.179 312.231 211.839 312.381 213.659 313.521 215.089 314.281 216.729 315.151 218.299 316.131 219.809 317.211 221.279 318.261 222.639 319.441 223.949 320.681 226.029 322.671 229.219 319.501 227.119 317.491zM55.7701 287.34C57.2101 287.03 58.4501 286.78 59.8901 286.77 61.1201 286.76 62.2101 286.94 63.2401 287.66 63.5601 287.89 63.0601 287.49 63.3501 287.75 63.4701 287.85 63.5801 287.96 63.6901 288.07 63.7601 288.14 64.1701 288.62 64.0201 288.42 64.2101 288.67 64.3701 288.94 64.5301 289.22 64.6101 289.36 64.6801 289.5 64.7501 289.64 64.9001 289.93 64.7901 289.69 64.8601 289.87 65.3501 291.05 65.6101 292.33 65.8201 293.59 66.0401 294.94 66.2501 296.22 66.1801 297.71 66.1601 298.21 66.0301 298.84 65.8701 299.18 65.6101 299.73 65.4301 299.91 65.0101 300.15 64.9801 300.17 64.5401 300.4 64.7401 300.3 64.9501 300.2 64.3701 300.37 64.6301 300.34 64.8001 300.32 64.0301 300.25 64.3701 300.34 63.7701 300.17 64.2001 300.27 64.2301 300.29 63.8001 299.98 64.0501 300.16 64.1001 300.22 63.8001 299.93 63.8001 299.93 63.6101 299.62 62.9401 298.52 62.6701 297.08 61.9801 295.75 60.2301 292.36 56.0301 291.18 52.6901 292.9 51.6101 293.45 51.2901 294.97 51.8801 295.98 52.5201 297.08 53.8701 297.34 54.9601 296.79 55.3501 296.59 55.7301 296.52 56.3501 296.6 56.0401 296.56 56.7801 296.73 56.9101 296.78 56.6301 296.67 57.5801 297.22 57.3501 297.03 58.3901 297.91 58.6901 299.76 59.3201 301.12 60.0701 302.76 61.3901 304.2 63.1701 304.69 65.0601 305.21 67.0301 304.46 68.4301 303.18 71.3501 300.51 70.7601 296.26 70.2201 292.76 69.7501 289.74 68.8001 286.44 66.3501 284.41 62.9501 281.6 58.5901 282.15 54.5801 283 53.3901 283.25 52.7001 284.65 53.0101 285.77 53.3401 287 54.5801 287.59 55.7701 287.34z"></path><path fill="#231F20" d="M70.1798 299.143C72.7998 299.323 74.9598 297.183 75.5798 294.783C76.1898 292.423 75.8098 289.713 75.4698 287.333C74.8198 282.873 72.3898 278.363 67.7698 277.083C64.9698 276.313 63.7798 280.653 66.5698 281.423C67.6698 281.723 68.6098 282.413 69.2898 283.343C70.2198 284.613 70.6798 286.053 70.9698 287.603C71.2698 289.173 71.3798 290.823 71.3598 292.413C71.3498 293.043 71.2998 293.723 70.9898 294.213C70.7098 294.653 70.5398 294.673 70.1698 294.643C68.9598 294.553 67.9198 295.743 67.9198 296.893C67.9298 298.183 68.9698 299.053 70.1798 299.143Z"></path><path fill="#231F20" d="M75.1694 294.032C77.4094 294.302 79.5794 292.692 80.4994 290.722C81.6194 288.312 81.1194 285.722 80.5194 283.242C79.4894 279.002 77.6194 274.422 72.9894 273.162C71.8194 272.842 70.5394 273.562 70.2194 274.732C69.8994 275.902 70.6094 277.182 71.7894 277.502C72.7494 277.762 73.6894 278.492 74.2594 279.342C75.1294 280.632 75.5794 282.082 75.9594 283.582C76.3294 285.012 76.8994 286.642 76.6594 288.132C76.5794 288.622 76.3794 289.022 76.0894 289.282C75.9394 289.422 75.8294 289.502 75.6494 289.572C75.8394 289.492 75.3194 289.562 75.5594 289.582C75.7794 289.592 75.1494 289.532 75.1694 289.532C73.9594 289.382 72.9194 290.672 72.9194 291.782C72.9194 293.112 73.9494 293.882 75.1694 294.032Z"></path><path fill="#231F20" d="M81.2409 287.528C84.7309 287.008 86.3309 283.278 86.1209 280.098C85.9009 276.858 84.7409 273.628 82.5209 271.228C80.2809 268.808 76.8809 267.498 73.6109 268.058C70.5809 268.578 68.0509 270.858 67.1809 273.788C68.1009 273.268 69.0309 272.738 69.9509 272.218C66.0509 271.138 61.5709 273.068 59.7809 276.738C60.4309 276.368 61.0809 275.998 61.7209 275.628C56.0309 275.438 50.8209 279.428 48.9309 284.688C49.4509 284.168 49.9809 283.638 50.5009 283.118C44.0509 284.648 39.1109 289.908 38.1609 296.478C37.1409 303.578 40.1509 309.838 42.5009 316.318C43.6509 319.498 44.6009 322.778 44.4609 326.188C44.3409 329.038 43.5309 331.858 42.6609 334.558C40.7109 340.618 37.9009 346.348 35.6509 352.298C26.6509 376.038 24.6609 402.868 31.1909 427.488C33.4209 435.908 36.6109 444.728 42.2309 451.528C43.0009 452.468 44.6109 452.328 45.4109 451.528C46.3409 450.598 46.1909 449.288 45.4109 448.348C45.3009 448.218 45.1909 448.078 45.0809 447.948C44.7109 447.488 45.3609 448.328 45.0009 447.848C44.7809 447.548 44.5609 447.248 44.3409 446.948C43.8409 446.238 43.3709 445.508 42.9209 444.758C41.9709 443.188 41.1209 441.558 40.3409 439.898C38.4709 435.928 36.9809 431.588 35.7709 427.218C32.6209 415.768 31.4809 403.818 32.0009 391.968C32.6409 377.328 35.9809 362.878 41.6409 349.368C44.1009 343.498 46.8209 337.628 48.2209 331.388C48.9909 327.978 49.1809 324.618 48.5609 321.158C47.9209 317.598 46.5309 314.228 45.2109 310.878C42.6509 304.348 40.1709 295.768 46.1809 290.288C47.3309 289.238 48.7409 288.378 50.2109 287.878C51.2409 287.528 52.4309 287.458 53.0409 286.428C53.4509 285.728 53.6609 284.938 54.1109 284.228C55.7409 281.698 58.7009 280.028 61.7209 280.128C62.4609 280.158 63.3309 279.688 63.6609 279.018C64.5809 277.128 66.6609 275.988 68.7409 276.568C69.9309 276.898 71.1609 276.158 71.5109 274.998C72.6109 271.288 77.2709 272.198 79.3209 274.428C80.5709 275.788 81.2609 277.658 81.5309 279.468C81.7509 280.898 81.8009 282.938 80.0309 283.208C78.8309 283.388 78.1609 284.908 78.4609 285.978C78.8209 287.248 80.0309 287.708 81.2409 287.528Z"></path><path fill="#231F20" d="M65.1497 317.842C65.2997 312.812 67.2697 307.862 70.7097 304.172 74.4197 300.192 79.9997 297.522 81.0597 291.662 81.2797 290.472 80.7297 289.232 79.4897 288.892 78.3997 288.592 76.9397 289.262 76.7197 290.462 76.2497 293.072 74.4697 294.922 72.5197 296.602 70.3197 298.492 68.0497 300.202 66.2397 302.502 62.7697 306.902 60.8197 312.242 60.6397 317.842 60.5597 320.742 65.0597 320.742 65.1497 317.842zM88.2696 293.068C84.0296 297.088 82.0296 302.768 81.1496 308.418 80.0896 315.198 79.8796 322.058 78.2496 328.758 75.8696 338.508 70.7996 347.278 66.6596 356.328 61.7896 366.958 58.3296 377.958 57.7596 389.708 57.1896 401.428 58.7496 413.338 62.9896 424.308 66.7696 434.098 72.4996 442.998 79.7696 450.568 81.7796 452.658 84.9596 449.478 82.9496 447.388 76.8896 441.088 71.9496 433.788 68.4196 425.778 63.9896 415.738 62.0696 404.698 62.1496 393.758 62.2296 382.268 64.9096 371.368 69.5196 360.878 73.4296 351.978 78.3596 343.468 81.3796 334.198 83.6296 327.278 84.3896 320.008 85.1096 312.798 85.6996 306.858 86.9396 300.508 91.4496 296.238 93.5596 294.258 90.3796 291.078 88.2696 293.068zM10.7004 291.204C20.0104 291.404 29.3204 292.134 38.5404 293.474 39.7404 293.644 40.9604 293.174 41.3104 291.904 41.6004 290.844 40.9504 289.314 39.7404 289.134 30.1204 287.744 20.4304 286.914 10.7004 286.704 7.80039 286.644 7.80039 291.144 10.7004 291.204z"></path><path fill="#231F20" d="M13.7992 287.954C34.9792 278.574 56.1592 269.194 77.3492 259.804C83.3492 257.144 89.3492 254.494 95.3392 251.834C96.4492 251.344 96.7092 249.724 96.1492 248.754C95.4792 247.604 94.1892 247.454 93.0692 247.944C71.8892 257.324 50.7092 266.704 29.5192 276.094C23.5192 278.754 17.5192 281.404 11.5292 284.064C10.4192 284.554 10.1592 286.174 10.7192 287.144C11.3892 288.294 12.6892 288.454 13.7992 287.954Z"></path><path fill="#231F20" d="M82.2502 294.568C86.5202 295.058 90.7402 295.828 95.0102 296.338C97.4502 296.628 100.05 296.988 102.52 296.768C104.64 296.578 106.57 295.808 108.51 294.998C112.41 293.368 116.27 291.638 120.14 289.938C136.8 282.628 153.43 275.238 170.05 267.838C179.42 263.668 188.79 259.498 198.17 255.348C200.37 254.378 199.04 251.268 197.03 251.158C171.55 249.728 146.07 248.308 120.59 246.878C113.37 246.478 106.15 246.068 98.9302 245.668C96.0402 245.508 96.0502 250.008 98.9302 250.168C124.41 251.598 149.89 253.018 175.37 254.448C182.59 254.848 189.81 255.258 197.03 255.658C196.65 254.258 196.27 252.858 195.89 251.468C179.48 258.738 163.09 266.048 146.69 273.328C138.53 276.948 130.36 280.568 122.18 284.158C118.11 285.948 114.04 287.738 109.96 289.508C107.72 290.488 105.43 291.648 103.04 292.168C102.85 292.208 102.66 292.238 102.47 292.278C102.21 292.328 102.67 292.248 102.67 292.248C102.54 292.258 102.41 292.278 102.27 292.288C101.85 292.308 101.44 292.318 101.02 292.308C99.5502 292.278 98.0802 292.148 96.6102 292.008C91.8002 291.538 87.0402 290.618 82.2402 290.068C81.0302 289.928 79.9902 291.198 79.9902 292.318C80.0002 293.648 81.0402 294.428 82.2502 294.568Z"></path><path fill="#231F20" d="M111.071 267.538C129.761 264.958 148.621 263.968 167.431 262.668C172.781 262.298 178.131 261.898 183.471 261.438C182.751 260.888 182.021 260.338 181.301 259.788C186.931 280.478 190.941 301.568 193.211 322.888C193.871 329.048 194.391 335.228 194.801 341.408C194.991 344.278 199.491 344.308 199.301 341.408C197.851 319.618 194.911 297.938 190.121 276.618C188.761 270.568 187.261 264.558 185.631 258.578C185.391 257.688 184.431 256.838 183.461 256.928C164.381 258.568 145.241 259.388 126.181 261.268C120.731 261.808 115.281 262.448 109.851 263.198C108.651 263.368 107.991 264.908 108.281 265.968C108.661 267.268 109.871 267.708 111.071 267.538Z"></path><path fill="#231F20" d="M194.129 345.418C193.419 349.068 192.709 352.718 192.009 356.368 191.439 359.318 189.409 365.018 194.039 365.678 195.699 365.908 197.579 365.428 199.189 365.008 200.779 364.588 202.509 364.068 203.829 363.058 206.949 360.668 205.709 356.658 204.849 353.448 203.819 349.618 202.369 345.908 200.619 342.358 200.079 341.268 198.539 340.968 197.539 341.548 196.429 342.198 196.189 343.538 196.729 344.628 198.239 347.668 199.449 350.838 200.359 354.108 200.759 355.528 201.349 357.168 201.379 358.648 201.409 359.838 200.009 360.058 199.029 360.368 198.229 360.618 197.409 360.828 196.589 360.988 196.259 361.058 195.919 361.118 195.589 361.168 195.139 361.228 194.309 361.008 194.999 361.508 195.289 361.618 195.459 361.818 195.499 362.128 195.499 361.828 195.499 361.748 195.519 361.878 195.709 361.528 195.709 360.898 195.789 360.508 195.969 359.598 196.139 358.678 196.319 357.768 197.039 354.048 197.759 350.338 198.479 346.618 198.709 345.428 198.139 344.188 196.909 343.848 195.789 343.548 194.359 344.218 194.129 345.418zM146.01 282.539C148.03 290.279 150.04 298.019 152.06 305.749 152.79 308.549 157.13 307.359 156.4 304.549 154.38 296.809 152.37 289.069 150.35 281.339 149.62 278.539 145.28 279.729 146.01 282.539z"></path><path fill="#231F20" d="M87.8698 329.292C106.44 333.472 126.53 329.602 142.38 319.092 146.87 316.112 151.03 312.622 154.69 308.672 156.66 306.552 153.48 303.362 151.51 305.492 139.35 318.592 121.79 326.182 103.94 326.472 98.9298 326.552 93.9498 326.062 89.0598 324.962 86.2398 324.322 85.0398 328.662 87.8698 329.292zM152.61 127.308C158.24 144.688 163.88 162.068 169.51 179.438 169.92 180.698 171.57 181.678 172.82 180.778 187.56 170.178 202.3 159.568 217.05 148.968 221.24 145.948 225.44 142.938 229.63 139.918 230.62 139.208 231.09 137.958 230.44 136.838 229.87 135.868 228.35 135.318 227.36 136.028 212.62 146.628 197.88 157.238 183.13 167.838 178.94 170.858 174.74 173.868 170.55 176.888 171.65 177.338 172.75 177.788 173.86 178.228 168.23 160.848 162.59 143.468 156.96 126.098 156.06 123.368 151.71 124.538 152.61 127.308zM159.3 120.683C172.22 110.213 185.14 99.743 198.05 89.273 201.71 86.303 205.38 83.333 209.04 80.363 207.86 80.213 206.68 80.063 205.51 79.903 213.62 96.613 217.62 114.823 224.67 131.953 225.13 133.073 226.16 133.873 227.44 133.523 228.5 133.233 229.48 131.883 229.01 130.753 225.51 122.243 222.8 113.453 219.95 104.703 216.94 95.483 213.64 86.363 209.4 77.633 208.71 76.213 206.9 76.343 205.87 77.173 192.95 87.643 180.03 98.113 167.12 108.583 163.46 111.553 159.79 114.523 156.13 117.493 155.19 118.263 155.33 119.883 156.13 120.673 157.05 121.623 158.35 121.453 159.3 120.683z"></path><path fill="#231F20" d="M189.661 140.323C196.501 154.603 200.961 170.103 202.701 185.843C203.191 190.323 203.471 194.813 203.551 199.313C203.601 202.203 208.101 202.213 208.051 199.313C207.771 182.863 204.741 166.453 199.041 151.013C197.411 146.603 195.571 142.283 193.551 138.043C193.031 136.943 191.461 136.663 190.471 137.233C189.351 137.903 189.141 139.223 189.661 140.323Z"></path><path fill="#231F20" d="M200.369 207.009C200.859 209.519 199.149 212.049 198.199 214.249 197.119 216.749 196.299 219.589 197.139 222.289 197.929 224.829 200.019 226.569 202.479 227.389 205.319 228.319 208.349 227.759 211.199 227.199 212.079 227.029 212.949 225.949 212.849 225.029 211.999 217.299 210.539 209.659 208.419 202.179 207.629 199.399 203.289 200.579 204.079 203.379 206.089 210.469 207.539 217.709 208.349 225.039 208.899 224.319 209.449 223.589 209.999 222.869 207.909 223.279 205.579 223.809 203.509 223.009 201.839 222.359 201.109 220.969 201.319 219.219 201.559 217.159 202.679 215.299 203.499 213.429 204.579 210.959 205.229 208.519 204.699 205.829 204.469 204.639 203.039 203.949 201.929 204.259 200.699 204.579 200.139 205.809 200.369 207.009zM196.471 169.161C203.881 171.141 211.291 173.121 218.701 175.101 221.501 175.851 222.701 171.511 219.901 170.761 212.491 168.781 205.081 166.801 197.671 164.821 194.871 164.071 193.671 168.411 196.471 169.161z"></path><path fill="#231F20" d="M224.26 170.969C236.7 157.079 244.23 139.219 245.74 120.659 246.16 115.489 246.08 110.289 245.51 105.139 245.39 104.089 244.88 103.309 243.86 102.969 236.34 100.459 228.83 97.9495 221.31 95.4395 218.56 94.5195 217.38 98.8695 220.11 99.7795 227.63 102.289 235.14 104.799 242.66 107.309 242.11 106.589 241.56 105.859 241.01 105.139 242.95 122.739 238.95 140.749 229.83 155.919 227.29 160.149 224.37 164.109 221.08 167.789 219.15 169.939 222.32 173.139 224.26 170.969zM259.47 238.968C269.66 222.408 281.21 206.718 294.02 192.088 293.29 192.278 292.56 192.478 291.83 192.668 310.52 199.388 329.21 206.108 347.9 212.838 349.04 213.248 350.36 212.378 350.67 211.268 351.01 210.018 350.25 208.908 349.1 208.498 330.41 201.778 311.72 195.058 293.03 188.328 292.33 188.078 291.33 188.348 290.84 188.908 277.79 203.828 265.98 219.818 255.59 236.698 254.07 239.168 257.96 241.438 259.47 238.968z"></path><path fill="#231F20" d="M259.449 246.299C275.829 250.139 291.899 255.349 307.389 261.939C308.359 262.349 309.309 262.339 310.119 261.589C322.019 250.509 333.319 238.769 343.919 226.429C346.949 222.909 349.919 219.329 352.829 215.709C353.589 214.759 353.749 213.449 352.829 212.529C352.039 211.739 350.409 211.579 349.649 212.529C339.439 225.189 328.539 237.289 316.989 248.749C313.689 252.019 310.339 255.239 306.939 258.409C307.849 258.289 308.759 258.179 309.669 258.059C293.819 251.309 277.439 245.899 260.659 241.969C257.829 241.299 256.629 245.639 259.449 246.299Z"></path><path fill="#231F20" d="M299.469 208.921C293.189 210.151 288.009 215.391 286.459 221.541 284.849 227.911 287.499 234.461 292.629 238.431 297.869 242.491 304.869 243.131 310.659 239.811 316.169 236.651 319.989 230.351 319.269 223.911 318.459 216.731 312.949 210.251 305.739 208.891 304.549 208.671 303.309 209.221 302.969 210.461 302.669 211.561 303.339 213.001 304.539 213.231 309.299 214.131 313.169 217.791 314.439 222.461 315.709 227.111 313.739 231.951 309.989 234.871 306.149 237.861 301.099 238.341 296.859 235.891 292.779 233.531 289.969 228.981 290.509 224.191 291.109 218.831 295.409 214.281 300.659 213.251 303.509 212.701 302.299 208.361 299.469 208.921zM333.1 238.023C333.47 243.313 331.83 248.353 330.67 253.443 329.67 257.813 329.15 262.223 329.99 266.663 330.75 270.703 332.85 274.433 336.32 276.723 340.24 279.303 345.23 279.403 349.74 278.973 354.83 278.483 360.61 277.053 365.38 279.603 367.93 280.973 370.21 277.083 367.65 275.713 363.36 273.413 358.54 273.463 353.83 273.993 349.63 274.463 345.17 275.293 341.03 274.003 333.02 271.493 333.47 261.423 334.95 254.863 336.2 249.313 337.99 243.783 337.59 238.023 337.41 235.153 332.9 235.123 333.1 238.023z"></path><path fill="#231F20" d="M366.3 281.72C367.47 285.13 368.55 288.59 369.83 291.97 370.44 293.57 371.28 295.12 372.87 295.92 374.53 296.75 376.41 296.61 378.14 296.11 380.74 295.37 383.9 294.1 385.13 291.49 385.91 289.84 385.81 288.02 384.95 286.42 384.15 284.92 382.76 283.86 381.44 282.85 378.35 280.49 375.04 278.42 371.59 276.64 370.51 276.08 369.15 276.36 368.51 277.45 367.92 278.46 368.23 279.97 369.32 280.53 371.9 281.86 374.4 283.35 376.78 285 377.32 285.37 377.85 285.75 378.38 286.14 378.96 286.57 379.27 286.79 379.77 287.22 380.01 287.43 380.24 287.64 380.46 287.87 380.57 287.98 380.67 288.1 380.77 288.22 380.62 288.01 380.74 288.18 380.77 288.22 380.92 288.43 381.07 288.66 381.17 288.89 381.03 288.56 381.16 288.91 381.17 288.97 381.25 289.65 381.2 288.73 381.19 289.14 381.19 289.22 381.12 289.63 381.19 289.34 381.25 289.07 381.15 289.37 381.15 289.41 381.17 289.69 381.07 289.57 381.17 289.39 381.11 289.5 381.05 289.6 380.99 289.71 380.93 289.81 380.73 289.99 381 289.7 380.93 289.77 380.87 289.85 380.8 289.91 380.7 290 380.61 290.09 380.52 290.18 380.35 290.34 380.77 290.04 380.42 290.25 379.98 290.53 379.54 290.79 379.07 291.01 378.97 291.05 378.88 291.1 378.78 291.14 379.13 290.98 378.81 291.13 378.74 291.15 378.45 291.26 378.16 291.37 377.86 291.47 377.29 291.67 376.71 291.84 376.12 291.96 376.12 291.96 375.74 292.02 375.95 292 376.19 291.97 375.71 292.01 375.66 292.01 375.54 292.01 375.43 292.01 375.31 292.01 375.06 291.99 375.01 291.99 375.16 292 375.31 292.02 375.26 292 375.02 291.95 375.02 291.95 374.68 291.81 374.87 291.9 375.1 292 374.61 291.65 374.79 291.83 374.93 291.97 374.4 291.3 374.63 291.65 374.47 291.4 374.33 291.13 374.2 290.86 374.22 290.91 374.3 291.11 374.21 290.87 374.14 290.69 374.08 290.51 374.01 290.33 372.86 287.07 371.76 283.78 370.63 280.51 370.24 279.36 369.09 278.6 367.86 278.94 366.75 279.26 365.9 280.56 366.3 281.72zM345.62 96.2103C331.99 111.26 318.35 126.32 304.72 141.37 303.14 143.11 304.72 145.51 306.91 145.13 326.11 141.77 344.9 136.27 362.89 128.75 364.01 128.28 364.81 127.26 364.46 125.98 364.17 124.92 362.82 123.94 361.69 124.41 343.7 131.93 324.91 137.42 305.71 140.79 306.44 142.04 307.17 143.3 307.9 144.55 321.53 129.5 335.17 114.44 348.8 99.3903 350.74 97.2503 347.56 94.0503 345.62 96.2103zM354.89 98.381C374.07 97.251 393.25 96.131 412.44 95.001 411.91 93.721 411.38 92.441 410.85 91.161 396.7 102.391 381.75 112.601 366.17 121.741 363.67 123.201 365.94 127.101 368.44 125.631 384.36 116.291 399.58 105.821 414.03 94.351 415.56 93.141 414.29 90.401 412.44 90.511 393.26 91.641 374.08 92.761 354.89 93.891 352.02 94.051 352 98.551 354.89 98.381z"></path><path fill="#231F20" d="M358.941 108.963C369.621 108.463 377.751 100.153 382.411 91.1528C387.561 81.2128 389.651 69.4728 396.891 60.6728C400.351 56.4628 404.731 53.1228 410.191 52.1228C411.391 51.9028 412.061 50.4528 411.761 49.3528C411.411 48.0928 410.191 47.5628 408.991 47.7828C398.781 49.6628 391.661 58.5528 387.481 67.4728C382.801 77.4528 380.461 89.0728 372.711 97.3128C369.081 101.173 364.361 104.213 358.941 104.463C356.061 104.593 356.041 109.093 358.941 108.963Z"></path><path fill="#231F20" d="M414.45 48.9817C416.81 46.9817 419.39 45.2517 422.11 43.7917 423.41 43.0917 424.74 42.4417 426.11 41.8917 427.16 41.4617 428.6 40.6917 429.75 41.0217 430.37 41.2017 430.63 42.0217 430.82 42.8617 431.05 43.8817 431.05 45.1117 430.99 46.2717 430.96 47.0117 430.9 48.0217 430.26 48.3917 429.81 48.6417 429.18 48.6817 428.67 48.7317 427.76 48.8317 426.84 48.8917 425.92 48.9417 421.99 49.1717 418.04 49.0817 414.12 48.7117 412.91 48.5917 411.87 49.8317 411.87 50.9617 411.87 52.2717 412.91 53.0917 414.12 53.2117 418.3 53.6117 422.51 53.6817 426.71 53.3917 428.65 53.2617 430.83 53.2417 432.56 52.2417 434.32 51.2217 435.13 49.4017 435.39 47.4617 435.78 44.4417 435.64 40.4717 433.39 38.1517 430.29 34.9617 425.77 37.0817 422.42 38.6217 418.38 40.4817 414.67 42.9317 411.28 45.7917 410.35 46.5717 410.47 48.1617 411.28 48.9717 412.18 49.9017 413.52 49.7717 414.45 48.9817zM335.52 142.491C336.85 144.921 338.18 147.351 339.51 149.791 340.14 150.931 340.76 152.081 341.39 153.221 342.16 154.621 342.64 156.091 344.34 156.491 349.24 157.651 354.56 157.671 359.53 157.031 369.11 155.791 378.04 151.681 385.18 145.171 388.97 141.721 392.18 137.611 394.65 133.131 396.05 130.591 392.16 128.321 390.76 130.861 384.07 143.011 371.64 151.441 357.76 152.731 353.53 153.121 349.26 152.921 345.1 152.061 345.55 152.401 346 152.751 346.44 153.091 344.09 148.801 341.75 144.511 339.4 140.211 338.02 137.671 334.13 139.941 335.52 142.491z"></path><path fill="#231F20" d="M384.439 116.284C385.939 121.574 388.579 126.434 392.129 130.624C392.889 131.524 394.539 131.464 395.309 130.624C396.189 129.664 396.119 128.404 395.309 127.444C395.109 127.214 394.919 126.984 394.729 126.744C394.629 126.624 394.539 126.504 394.449 126.384C394.599 126.574 394.439 126.374 394.389 126.304C394.029 125.824 393.669 125.324 393.329 124.824C392.629 123.784 391.979 122.714 391.389 121.614C391.099 121.074 390.829 120.534 390.579 119.984C390.449 119.714 390.329 119.434 390.199 119.154C390.179 119.114 390.019 118.734 390.089 118.904C390.159 119.064 389.999 118.684 389.989 118.644C389.529 117.484 389.129 116.294 388.779 115.094C388.459 113.964 387.169 113.144 386.009 113.524C384.859 113.894 384.099 115.074 384.439 116.284Z"></path></svg>