<svg xmlns="http://www.w3.org/2000/svg" viewBox="0 0 64 64" id="shop"><path fill="#2a2f63" d="M63.86 16.25c0-.01 0-.02-.01-.03L56.94 2.28c-.25-.49-.74-.79-1.29-.79H8.79c-.53 0-1.02.29-1.27.76L.17 16.19c-.01.01-.01.03-.02.04-.04.08-.07.17-.1.26 0 .02-.01.04-.01.06-.03.09-.04.2-.04.3v5.93a8.98 8.98 0 0 0 4.01 7.48v30.82c0 .79.64 1.43 1.43 1.43h53.12c.79 0 1.43-.64 1.43-1.43V30.3c2.42-1.61 4.01-4.35 4.01-7.46v-5.98c0-.22-.05-.42-.14-.61zm-9.1-11.91 5.5 11.08H48.55L45.84 4.34h8.92zm-21.27 0h9.4l2.71 11.08H33.49V4.34zm0 13.94H46.1v4.41c0 3.43-2.79 6.23-6.22 6.23h-.17c-3.43 0-6.22-2.8-6.22-6.23v-4.41zM20.8 4.34h9.82v11.08H18.36L20.8 4.34zm-2.79 13.94h12.61v4.41c0 3.43-2.79 6.23-6.22 6.23h-.17c-3.43 0-6.22-2.8-6.22-6.23v-4.41zM9.65 4.34h8.22l-2.44 11.08H3.81L9.65 4.34zM2.87 22.78v-4.5h12.28v4.5c0 3.38-2.76 6.14-6.14 6.14-3.39.01-6.14-2.76-6.14-6.14zm20.15 36.87h-9.6V44.49h9.6v15.16zM25 41.63H11.44v-1.78H25v1.78zm32.13 18.02H25.88V44.49h.55c.79 0 1.43-.64 1.43-1.43v-4.64c0-.79-.64-1.43-1.43-1.43H10.01c-.79 0-1.43.64-1.43 1.43v4.64c0 .79.64 1.43 1.43 1.43h.55v15.17H6.88V31.52c.68.16 1.39.26 2.13.26 3.19 0 5.99-1.67 7.59-4.18 1.62 2.51 4.43 4.18 7.63 4.18h.17c3.22 0 6.04-1.68 7.65-4.21 1.62 2.53 4.44 4.21 7.66 4.21h.17c3.19 0 6-1.66 7.62-4.16a8.942 8.942 0 0 0 7.55 4.16c.72 0 1.41-.09 2.08-.25v28.12zm4-36.82c0 3.36-2.73 6.09-6.08 6.09-3.36 0-6.09-2.73-6.09-6.09v-4.55h12.17v4.55z"></path><path fill="#ffdb7c" d="M11.44 39.85H25v1.78H11.44zM13.42 44.49h9.6v15.17h-9.6z"></path><path fill="#f16e61" d="M55.05 31.78c-3.17 0-5.96-1.66-7.55-4.16-1.62 2.5-4.43 4.16-7.62 4.16h-.17c-3.22 0-6.04-1.68-7.66-4.21a9.051 9.051 0 0 1-7.65 4.21h-.17c-3.2 0-6.01-1.67-7.63-4.18-1.6 2.51-4.4 4.18-7.59 4.18-.74 0-1.45-.1-2.13-.26v28.13h3.68V44.49h-.55c-.79 0-1.43-.64-1.43-1.43v-4.64c0-.79.64-1.43 1.43-1.43h16.42c.79 0 1.43.64 1.43 1.43v4.64c0 .79-.64 1.43-1.43 1.43h-.55v15.17h31.25V31.53c-.67.16-1.36.25-2.08.25zm.12 11.39c0 .79-.64 1.43-1.43 1.43h-.16v12.63c0 .79-.64 1.43-1.43 1.43H34.92c-.8 0-1.44-.64-1.44-1.43V44.6h-.15c-.79 0-1.43-.64-1.43-1.43V38.6c0-.79.64-1.43 1.43-1.43h20.41c.79 0 1.43.64 1.43 1.43v4.57z"></path><path fill="#edeced" d="M15.15 18.28v4.5c0 3.38-2.76 6.14-6.14 6.14-3.39 0-6.14-2.76-6.14-6.14v-4.5h12.28zM17.87 4.34l-2.44 11.09H3.81L9.65 4.34zM30.62 4.34v11.09H18.36L20.8 4.34zM30.62 18.28v4.41c0 3.43-2.79 6.23-6.22 6.23h-.17c-3.43 0-6.22-2.8-6.22-6.23v-4.41h12.61zm15.48 0v4.41c0 3.43-2.79 6.23-6.22 6.23h-.17c-3.43 0-6.22-2.8-6.22-6.23v-4.41H46.1zM45.6 15.43H33.49V4.34h9.4zM60.26 15.43H48.55L45.84 4.34h8.92zM61.13 18.28v4.55c0 3.36-2.73 6.09-6.08 6.09-3.36 0-6.09-2.73-6.09-6.09v-4.55h12.17z"></path><path fill="#2a2f63" d="M53.74 37.17H33.33c-.79 0-1.43.64-1.43 1.43v4.57c0 .79.64 1.43 1.43 1.43h.15v12.63c0 .79.64 1.43 1.44 1.43h17.23c.79 0 1.43-.64 1.43-1.43V44.6h.16c.79 0 1.43-.64 1.43-1.43V38.6c0-.79-.64-1.43-1.43-1.43zm-3.02 18.61H36.35V44.6h14.37v11.18zm1.58-14.06H34.76v-1.7H52.3v1.7z"></path><path fill="#ffdb7c" d="M34.76 40.03H52.3v1.7H34.76zM36.35 44.6h14.37v11.19H36.35z"></path></svg>