<svg xmlns="http://www.w3.org/2000/svg" viewBox="0 0 32 32" id="train"><path fill="#3c3b42" d="M20 6.304h-9v-2a1 1 0 0 1 1-1h7a1 1 0 0 1 1 1v2z"></path><path fill="#2b2a2f" d="M19 3.304h-1.5a1 1 0 0 1 1 1 .5.5 0 0 1-.5.5h-7v1.5h9v-2a1 1 0 0 0-1-1z"></path><path fill="none" stroke="#3c3b42" stroke-linecap="round" stroke-linejoin="round" stroke-miterlimit="10" d="M4 28.304 7.5 24M27 28.304 23.5 24M5 27.304h21"></path><path fill="#f04c4d" d="M22.685 25.304H8.315a3 3 0 0 1-2.985-3.299l1.4-14a3 3 0 0 1 2.985-2.701h11.57a3 3 0 0 1 2.985 2.701l1.4 14a3 3 0 0 1-2.985 3.299z"></path><path fill="#e13340" d="M24.27 8.006a3 3 0 0 0-2.985-2.701h-2a3 3 0 0 1 2.985 2.701s.512 5.451.89 9.817a4.995 4.995 0 0 1-4.94 5.428c-4.394.034-9.906.053-9.906.053a2.99 2.99 0 0 1-2.89-2.249l-.095.95a3 3 0 0 0 2.985 3.299h14.37a3 3 0 0 0 2.985-3.299L24.27 8.006z"></path><path fill="#3c3b42" d="m22.335 22.304.165 3h-14l.165-3 .11-2 .606-11.055a1 1 0 0 1 .998-.945h10.24a1 1 0 0 1 .998.945l.607 11.055.111 2z"></path><path fill="#2b2a2f" d="M22.27 21.121a4.982 4.982 0 0 1-4.05 2.13c-3.798.029-8.424.048-9.611.052L8.5 25.304h14l-.165-3-.065-1.183z"></path><path fill="#fcd770" d="M10.5 22.304H7.816a.5.5 0 0 1-.496-.562l.125-1a.5.5 0 0 1 .496-.438H10.5a.5.5 0 0 1 .5.5v1a.5.5 0 0 1-.5.5z"></path><path fill="#ffcc5c" d="M10.5 20.304h-1a.5.5 0 0 1 .5.5v1a.5.5 0 0 1-.5.5h1a.5.5 0 0 0 .5-.5v-1a.5.5 0 0 0-.5-.5z"></path><path fill="#fcd770" d="M20.5 22.304h2.684a.5.5 0 0 0 .496-.562l-.125-1a.5.5 0 0 0-.496-.438H20.5a.5.5 0 0 0-.5.5v1a.5.5 0 0 0 .5.5z"></path><path fill="#90cff1" d="M19.7 18.671h-8.4a1 1 0 0 1-.999-1.049l.363-7.476a.5.5 0 0 1 .499-.476h8.672a.5.5 0 0 1 .499.476l.363 7.476a.997.997 0 0 1-.997 1.049z"></path><path fill="#72b7e5" d="M20.336 10.147a.5.5 0 0 0-.499-.476h-2a.5.5 0 0 1 .499.476l.363 7.476a1 1 0 0 1-.999 1.049h2a1 1 0 0 0 .999-1.049l-.363-7.476z"></path><path fill="#eff2fa" d="M16.504 10.64a.5.5 0 0 0-.707 0l-1.236 1.236a.5.5 0 0 0 .708.707l1.236-1.236a.501.501 0 0 0-.001-.707zm-2.969 2.262-.194.194a.5.5 0 0 0 .708.708l.194-.194a.5.5 0 0 0-.708-.708zm1.349-2.377a.5.5 0 0 0-.707-.707l-1.616 1.616a.5.5 0 0 0 .708.707l1.615-1.616zm-3.543 2.129-.194.194a.5.5 0 0 0 .708.707l.194-.194a.5.5 0 0 0-.708-.707zM20.179 13.83a.5.5 0 0 0-.707 0l-1.236 1.236a.5.5 0 0 0 .708.707l1.236-1.236a.501.501 0 0 0-.001-.707zm-2.969 2.261-.194.194a.5.5 0 0 0 .708.708l.194-.194a.5.5 0 0 0-.708-.708zm1.349-2.377a.5.5 0 0 0-.707-.707l-1.616 1.616a.5.5 0 0 0 .708.707l1.615-1.616zm-3.543 2.129-.194.194a.5.5 0 0 0 .708.707l.194-.194a.5.5 0 0 0-.708-.707z" opacity=".25"></path><path fill="#ffcc5c" d="M20.5 22.304h1a.5.5 0 0 1-.5-.5v-1a.5.5 0 0 1 .5-.5h-1a.5.5 0 0 0-.5.5v1a.5.5 0 0 0 .5.5z"></path></svg>