<svg xmlns="http://www.w3.org/2000/svg" xmlns:xlink="http://www.w3.org/1999/xlink" width="200" zoomAndPan="magnify" viewBox="0 0 150 149.999998" height="200" preserveAspectRatio="xMidYMid meet" version="1.0"><defs><clipPath id="c0ad836817"><path d="M 87 17.605469 L 124.722656 17.605469 L 124.722656 57.355469 L 87 57.355469 Z M 87 17.605469 " clip-rule="nonzero"/></clipPath></defs><path fill="#ff143a" d="M 29.648438 39.101562 C 28.972656 39.78125 28.328125 40.488281 27.722656 41.230469 C 27.113281 41.972656 26.542969 42.742188 26.011719 43.539062 C 25.480469 44.335938 24.988281 45.15625 24.535156 46 C 24.085938 46.84375 23.675781 47.710938 23.308594 48.59375 C 22.945312 49.480469 22.621094 50.382812 22.34375 51.296875 C 22.066406 52.214844 21.832031 53.144531 21.648438 54.082031 C 21.460938 55.023438 21.320312 55.96875 21.226562 56.921875 C 21.132812 57.875 21.085938 58.832031 21.085938 59.789062 C 21.085938 60.75 21.132812 61.703125 21.226562 62.65625 C 21.320312 63.609375 21.460938 64.558594 21.648438 65.496094 C 21.832031 66.4375 22.066406 67.363281 22.34375 68.28125 C 22.621094 69.199219 22.945312 70.101562 23.308594 70.984375 C 23.675781 71.871094 24.085938 72.734375 24.535156 73.582031 C 24.988281 74.425781 25.480469 75.246094 26.011719 76.042969 C 26.542969 76.839844 27.113281 77.609375 27.722656 78.347656 C 28.328125 79.089844 28.972656 79.800781 29.648438 80.476562 L 33.769531 84.613281 L 74.992188 125.988281 L 116.210938 84.613281 L 120.332031 80.476562 C 121.011719 79.800781 121.652344 79.089844 122.261719 78.347656 C 122.867188 77.609375 123.4375 76.839844 123.96875 76.042969 C 124.5 75.246094 124.992188 74.425781 125.445312 73.582031 C 125.894531 72.734375 126.304688 71.871094 126.671875 70.984375 C 127.039062 70.101562 127.359375 69.199219 127.636719 68.28125 C 127.914062 67.363281 128.148438 66.4375 128.335938 65.496094 C 128.519531 64.558594 128.660156 63.609375 128.753906 62.65625 C 128.847656 61.703125 128.894531 60.75 128.894531 59.789062 C 128.894531 58.832031 128.847656 57.875 128.753906 56.921875 C 128.660156 55.96875 128.519531 55.023438 128.335938 54.082031 C 128.148438 53.144531 127.914062 52.214844 127.636719 51.296875 C 127.359375 50.382812 127.039062 49.480469 126.671875 48.59375 C 126.304688 47.710938 125.894531 46.84375 125.445312 46 C 124.992188 45.15625 124.5 44.335938 123.96875 43.539062 C 123.4375 42.742188 122.867188 41.972656 122.261719 41.230469 C 121.652344 40.488281 121.011719 39.78125 120.332031 39.101562 C 119.660156 38.425781 118.957031 37.78125 118.21875 37.167969 C 117.484375 36.558594 116.71875 35.988281 115.925781 35.453125 C 115.132812 34.921875 114.316406 34.425781 113.472656 33.972656 C 112.632812 33.519531 111.769531 33.109375 110.886719 32.742188 C 110.003906 32.375 109.105469 32.050781 108.191406 31.769531 C 107.277344 31.492188 106.351562 31.257812 105.414062 31.070312 C 104.476562 30.882812 103.535156 30.742188 102.582031 30.648438 C 101.632812 30.554688 100.679688 30.507812 99.722656 30.507812 C 98.765625 30.507812 97.8125 30.554688 96.859375 30.648438 C 95.910156 30.742188 94.964844 30.882812 94.027344 31.070312 C 93.089844 31.257812 92.164062 31.492188 91.25 31.769531 C 90.335938 32.050781 89.4375 32.375 88.554688 32.742188 C 87.671875 33.109375 86.8125 33.519531 85.96875 33.972656 C 85.128906 34.425781 84.3125 34.921875 83.519531 35.453125 C 82.726562 35.988281 81.960938 36.558594 81.222656 37.167969 C 80.488281 37.78125 79.785156 38.425781 79.109375 39.101562 L 74.992188 43.238281 L 70.867188 39.101562 C 70.195312 38.425781 69.492188 37.78125 68.753906 37.171875 C 68.019531 36.5625 67.253906 35.988281 66.460938 35.453125 C 65.667969 34.921875 64.851562 34.425781 64.007812 33.972656 C 63.167969 33.519531 62.304688 33.109375 61.421875 32.742188 C 60.542969 32.375 59.644531 32.050781 58.730469 31.773438 C 57.816406 31.492188 56.890625 31.257812 55.953125 31.070312 C 55.015625 30.882812 54.070312 30.742188 53.117188 30.648438 C 52.167969 30.554688 51.214844 30.507812 50.257812 30.507812 C 49.300781 30.507812 48.347656 30.554688 47.398438 30.648438 C 46.445312 30.742188 45.503906 30.882812 44.566406 31.070312 C 43.628906 31.257812 42.703125 31.492188 41.789062 31.773438 C 40.875 32.050781 39.976562 32.375 39.09375 32.742188 C 38.210938 33.109375 37.347656 33.519531 36.507812 33.972656 C 35.664062 34.425781 34.847656 34.921875 34.054688 35.453125 C 33.261719 35.988281 32.5 36.5625 31.761719 37.171875 C 31.027344 37.78125 30.320312 38.425781 29.648438 39.101562 Z M 29.648438 39.101562 " fill-opacity="1" fill-rule="evenodd"/><path stroke-linecap="round" transform="matrix(2.34375, 0, 0, 2.34375, 0.00000125, 0.000002)" fill="none" stroke-linejoin="round" d="M 14.14 29.770001 C 13.766667 29.123334 13.483334 28.441667 13.291667 27.720001 C 13.098334 27.000001 13.001667 26.266667 13.001667 25.521667 C 13.001667 24.775001 13.098334 24.043334 13.291667 23.321667 C 13.483334 22.601667 13.766667 21.918334 14.14 21.273334 C 14.513334 20.626667 14.963334 20.04 15.49 19.513334 C 16.018334 18.985 16.605 18.535 17.25 18.161667 C 17.896667 17.79 18.580001 17.506667 19.300001 17.313333 C 20.021667 17.12 20.753334 17.023333 21.500001 17.023333 " stroke="#ffffff" stroke-width="1.999" stroke-opacity="0.4" stroke-miterlimit="4"/><path fill="#d30045" d="M 50.257812 30.503906 C 48.34375 30.503906 46.445312 30.691406 44.566406 31.066406 C 42.6875 31.441406 40.863281 32 39.09375 32.738281 C 37.324219 33.472656 35.644531 34.378906 34.054688 35.449219 C 32.464844 36.519531 30.996094 37.734375 29.648438 39.097656 C 28.488281 40.273438 27.4375 41.539062 26.492188 42.894531 C 26.539062 42.847656 26.539062 42.839844 26.566406 42.8125 C 27.179688 42.191406 27.824219 41.601562 28.496094 41.046875 C 29.167969 40.492188 29.867188 39.96875 30.589844 39.480469 C 31.3125 38.992188 32.058594 38.542969 32.828125 38.128906 C 33.59375 37.714844 34.382812 37.339844 35.1875 37.003906 C 35.992188 36.667969 36.8125 36.375 37.648438 36.121094 C 38.480469 35.863281 39.328125 35.652344 40.183594 35.480469 C 41.039062 35.308594 41.898438 35.179688 42.765625 35.09375 C 43.636719 35.007812 44.507812 34.964844 45.378906 34.964844 C 46.25 34.964844 47.121094 35.007812 47.988281 35.09375 C 48.859375 35.179688 49.71875 35.308594 50.574219 35.480469 C 51.429688 35.652344 52.277344 35.863281 53.109375 36.121094 C 53.945312 36.375 54.765625 36.667969 55.570312 37.003906 C 56.375 37.339844 57.160156 37.714844 57.929688 38.128906 C 58.699219 38.542969 59.445312 38.992188 60.167969 39.480469 C 60.890625 39.96875 61.589844 40.492188 62.261719 41.046875 C 62.933594 41.601562 63.578125 42.191406 64.191406 42.8125 L 69.75 48.417969 L 73.511719 44.636719 C 73.996094 44.152344 74.503906 43.714844 75.011719 43.273438 L 70.875 39.09375 C 69.527344 37.730469 68.058594 36.515625 66.46875 35.445312 C 64.878906 34.375 63.199219 33.46875 61.429688 32.734375 C 59.660156 31.996094 57.835938 31.4375 55.957031 31.0625 C 54.078125 30.6875 52.179688 30.5 50.265625 30.5 Z M 99.71875 30.503906 C 93.644531 30.503906 87.589844 32.441406 82.457031 36.25 C 83.613281 35.878906 84.792969 35.589844 85.988281 35.378906 C 87.183594 35.167969 88.390625 35.042969 89.605469 35 C 90.820312 34.957031 92.03125 34.996094 93.242188 35.121094 C 94.449219 35.242188 95.644531 35.449219 96.824219 35.738281 C 98.003906 36.023438 99.160156 36.394531 100.289062 36.839844 C 101.417969 37.289062 102.511719 37.8125 103.570312 38.410156 C 104.628906 39.007812 105.640625 39.675781 106.605469 40.414062 C 107.574219 41.148438 108.484375 41.949219 109.339844 42.8125 C 109.957031 43.433594 110.542969 44.078125 111.097656 44.753906 C 111.652344 45.429688 112.171875 46.132812 112.65625 46.859375 C 113.140625 47.585938 113.589844 48.335938 114.003906 49.109375 C 114.414062 49.878906 114.789062 50.667969 115.121094 51.476562 C 115.457031 52.285156 115.75 53.105469 116.003906 53.945312 C 116.257812 54.78125 116.472656 55.628906 116.640625 56.484375 C 116.8125 57.34375 116.941406 58.207031 117.027344 59.078125 C 117.109375 59.945312 117.152344 60.820312 117.152344 61.691406 C 117.152344 62.566406 117.109375 63.441406 117.027344 64.308594 C 116.941406 65.179688 116.8125 66.042969 116.640625 66.902344 C 116.472656 67.757812 116.257812 68.605469 116.003906 69.441406 C 115.75 70.28125 115.457031 71.101562 115.121094 71.910156 C 114.789062 72.71875 114.414062 73.507812 114.003906 74.277344 C 113.589844 75.050781 113.140625 75.800781 112.65625 76.527344 C 112.171875 77.253906 111.652344 77.957031 111.097656 78.632812 C 110.542969 79.308594 109.957031 79.953125 109.339844 80.574219 L 105.578125 84.355469 L 69.542969 120.523438 L 74.988281 125.988281 L 116.210938 84.609375 L 120.328125 80.46875 C 121.003906 79.792969 121.648438 79.082031 122.253906 78.34375 C 122.863281 77.601562 123.433594 76.832031 123.964844 76.035156 C 124.496094 75.238281 124.988281 74.417969 125.4375 73.574219 C 125.890625 72.726562 126.300781 71.863281 126.664062 70.976562 C 127.03125 70.09375 127.355469 69.191406 127.632812 68.273438 C 127.910156 67.355469 128.140625 66.429688 128.328125 65.488281 C 128.515625 64.550781 128.65625 63.601562 128.75 62.648438 C 128.84375 61.695312 128.890625 60.738281 128.890625 59.78125 C 128.890625 58.824219 128.84375 57.867188 128.75 56.914062 C 128.65625 55.960938 128.515625 55.015625 128.328125 54.074219 C 128.140625 53.136719 127.910156 52.207031 127.632812 51.289062 C 127.355469 50.375 127.03125 49.472656 126.664062 48.585938 C 126.300781 47.703125 125.890625 46.835938 125.4375 45.992188 C 124.988281 45.144531 124.496094 44.324219 123.964844 43.527344 C 123.433594 42.730469 122.863281 41.960938 122.253906 41.222656 C 121.648438 40.480469 121.003906 39.773438 120.328125 39.09375 C 118.980469 37.730469 117.511719 36.515625 115.921875 35.445312 C 114.332031 34.375 112.652344 33.472656 110.882812 32.734375 C 109.117188 31.996094 107.292969 31.441406 105.414062 31.066406 C 103.535156 30.6875 101.636719 30.5 99.71875 30.5 Z M 99.71875 30.503906 " fill-opacity="1" fill-rule="evenodd"/><g clip-path="url(#c0ad836817)"><path fill="#ffcf6e" d="M 110.769531 17.863281 C 110.210938 17.628906 109.65625 18.3125 109.078125 18.910156 L 108.300781 19.699219 L 102.027344 25.949219 C 100.390625 27.578125 97.78125 26.847656 95.679688 26.332031 L 93.550781 25.851562 C 92.335938 25.644531 89.476562 25.0625 88.632812 25.050781 C 86.472656 25.019531 87.964844 27.257812 88.617188 28.488281 L 91.421875 33.914062 C 92.445312 35.9375 92.824219 37.167969 92.746094 38.222656 C 92.664062 39.289062 92.132812 40.121094 91.34375 41.363281 C 90.804688 42.207031 90.160156 43.222656 89.441406 44.589844 C 88.894531 45.628906 87.707031 47.722656 87.449219 48.523438 C 87.140625 49.464844 87.550781 49.90625 88.496094 49.871094 C 88.996094 49.851562 89.660156 49.726562 90.53125 49.558594 L 90.535156 49.554688 C 92.753906 49.128906 95.519531 48.714844 97.859375 48.351562 C 101.144531 47.839844 102.351562 49.046875 104.230469 51.367188 L 104.230469 51.371094 C 104.839844 52.109375 105.519531 52.933594 106.363281 53.800781 L 108.121094 55.695312 C 108.714844 56.347656 109.488281 57.335938 110.128906 57.246094 C 110.828125 57.148438 110.964844 56.210938 111.265625 54.25 L 112.285156 47.839844 C 113.117188 42.6875 114.722656 42.804688 118.800781 41.085938 C 119.976562 40.589844 121.359375 39.890625 122.539062 39.339844 L 122.542969 39.335938 C 123.996094 38.65625 124.71875 38.320312 124.722656 37.722656 C 124.722656 37.441406 124.566406 37.214844 124.25 36.988281 C 123.734375 36.609375 121.585938 35.609375 120.734375 35.171875 L 115.300781 32.378906 C 112.242188 30.808594 112.09375 27.597656 111.875 24.433594 C 111.839844 23.878906 111.800781 23.316406 111.75 22.734375 C 111.65625 21.675781 111.488281 20.605469 111.367188 19.570312 C 111.25 18.5625 111.191406 18.039062 110.769531 17.863281 Z M 110.769531 17.863281 " fill-opacity="1" fill-rule="nonzero"/></g><path fill="#ffffff" d="M 93.367188 43.558594 C 93.777344 42.601562 94.894531 40.902344 95.457031 39.554688 C 96.015625 38.203125 96.019531 37.199219 95.648438 36.082031 C 95.277344 34.96875 94.53125 33.738281 93.851562 32.597656 C 93.171875 31.460938 92.558594 30.414062 92.398438 29.773438 C 92.242188 29.136719 92.539062 28.90625 93.1875 29.363281 C 93.84375 29.824219 94.851562 30.976562 95.734375 32.140625 C 96.617188 33.304688 97.378906 34.484375 97.761719 35.386719 C 98.144531 36.285156 98.144531 36.90625 97.929688 37.691406 C 97.714844 38.472656 97.289062 39.417969 96.6875 40.5 C 96.085938 41.582031 95.308594 42.796875 94.757812 43.5625 C 94.203125 44.332031 93.878906 44.648438 93.566406 44.695312 C 93.253906 44.742188 92.957031 44.519531 93.367188 43.558594 Z M 112.210938 33.953125 C 113.050781 33.871094 114.515625 34.484375 115.921875 35.050781 C 117.332031 35.621094 118.683594 36.140625 119.40625 36.527344 C 120.132812 36.917969 120.226562 37.167969 119.609375 37.25 C 118.988281 37.332031 117.652344 37.246094 116.320312 37.089844 C 114.988281 36.933594 113.660156 36.710938 112.765625 36.449219 C 111.863281 36.191406 111.398438 35.898438 111.273438 35.359375 C 111.152344 34.820312 111.371094 34.039062 112.210938 33.953125 Z M 104.503906 26.90625 C 105.183594 25.925781 106.773438 24.214844 107.703125 23.289062 C 108.628906 22.367188 108.894531 22.230469 109.046875 22.34375 C 109.195312 22.457031 109.226562 22.8125 109.011719 23.484375 C 108.804688 24.160156 108.347656 25.148438 108.035156 26 C 107.722656 26.847656 107.558594 27.550781 107.347656 28.023438 C 107.132812 28.5 106.871094 28.738281 106.359375 28.761719 C 105.839844 28.78125 105.070312 28.578125 104.566406 28.351562 C 104.0625 28.128906 103.828125 27.886719 104.503906 26.90625 Z M 104.503906 26.90625 " fill-opacity="1" fill-rule="evenodd"/></svg>